# xmcd
#
# Track frame offsets: 
#        150
#        15210
#        30101
#        44677
#        61308
#        76161
#        87440
#        102762
#        120998
#        139388
#        158221
#        171189
#        200049
#        218420
#        230082
#        244794
#        257632
#
# Disc length: 3710 seconds
#
# Revision: 0
# Processed by: cddbd v1.5.1PL2 Copyright (c) Steve Scherf et al.
# Submitted via: ExactAudioCopy v0.95b3
#
DISCID=d80e7c11
DTITLE=Jewell (Robinson) Kidwell - Vocals, Jim Robinson - Banjo - Jewe
DTITLE=ll (Robinson) Kidwell, 1940-1979, Disc 1 of 2
DYEAR=1977
DGENRE=Gospel
TTITLE0=Love Took It Away
TTITLE1=My Brand New Home
TTITLE2=I'm On A Tour
TTITLE3=Jesus Use Me
TTITLE4=Instrument Of Peace
TTITLE5=March Around The Throne
TTITLE6=Jesus Will Guide Me
TTITLE7=A Sweeter Mama
TTITLE8=God Is Just A Memory
TTITLE9=I Won't Walk Without Jesus
TTITLE10=A Never Failing God
TTITLE11=Pity The Man - A Difference In Religion And Salvation
TTITLE12=There's Nothing Back There For Me
TTITLE13=The Grass Is Greener On The Other Side
TTITLE14=Are you Looking For Jesus Tonight?
TTITLE15=I Wonder How Felt
TTITLE16=Joy In The Morning
EXTD=
EXTT0=
EXTT1=
EXTT2=
EXTT3=
EXTT4=
EXTT5=
EXTT6=
EXTT7=
EXTT8=
EXTT9=
EXTT10=
EXTT11=
EXTT12=
EXTT13=
EXTT14=
EXTT15=
EXTT16=
PLAYORDER=
